g Body_01
v 70 0 -20
v 70 -10 -20
v 69.8834 -10 -23.4121
v 69.8834 0 -23.4121
v 69.5343 -10 -26.8083
v 69.5343 0 -26.8083
v 68.9542 -10 -30.1728
v 68.9542 0 -30.1728
v 68.1459 -10 -33.4898
v 68.1459 0 -33.4898
v 67.113 -10 -36.744
v 67.113 0 -36.744
v 65.8606 -10 -39.9201
v 65.8606 0 -39.9201
v 64.3943 -10 -43.0033
v 64.3943 0 -43.0033
v 62.721 -10 -45.9792
v 62.721 0 -45.9792
v 60.8485 -10 -48.834
v 60.8485 0 -48.834
v 58.7856 -10 -51.5544
v 58.7856 0 -51.5544
v 56.5418 -10 -54.1277
v 56.5418 0 -54.1277
v 54.1277 -10 -56.5418
v 54.1277 0 -56.5418
v 51.5544 -10 -58.7856
v 51.5544 0 -58.7856
v 48.834 -10 -60.8485
v 48.834 0 -60.8485
v 45.9792 -10 -62.721
v 45.9792 0 -62.721
v 43.0033 -10 -64.3943
v 43.0033 0 -64.3943
v 39.9201 -10 -65.8606
v 39.9201 0 -65.8606
v 36.744 -10 -67.113
v 36.744 0 -67.113
v 33.4898 -10 -68.1459
v 33.4898 0 -68.1459
v 30.1728 -10 -68.9542
v 30.1728 0 -68.9542
v 26.8083 -10 -69.5343
v 26.8083 0 -69.5343
v 23.4121 -10 -69.8834
v 23.4121 0 -69.8834
v 20 -10 -70
v 20 0 -70
v 20 -10 -100
v 20 0 -100
v -20 -10 -100
v -20 0 -100
v -20 -10 -70
v -20 0 -70
v -23.4121 -10 -69.8834
v -23.4121 0 -69.8834
v -26.8083 -10 -69.5343
v -26.8083 0 -69.5343
v -30.1728 -10 -68.9542
v -30.1728 0 -68.9542
v -33.4898 -10 -68.1459
v -33.4898 0 -68.1459
v -36.744 -10 -67.113
v -36.744 0 -67.113
v -39.9201 -10 -65.8606
v -39.9201 0 -65.8606
v -43.0033 -10 -64.3943
v -43.0033 0 -64.3943
v -45.9792 -10 -62.721
v -45.9792 0 -62.721
v -48.834 -10 -60.8485
v -48.834 0 -60.8485
v -51.5544 -10 -58.7856
v -51.5544 0 -58.7856
v -54.1277 -10 -56.5418
v -54.1277 0 -56.5418
v -56.5418 -10 -54.1277
v -56.5418 0 -54.1277
v -58.7856 -10 -51.5544
v -58.7856 0 -51.5544
v -60.8485 -10 -48.834
v -60.8485 0 -48.834
v -62.721 -10 -45.9792
v -62.721 0 -45.9792
v -64.3943 -10 -43.0033
v -64.3943 0 -43.0033
v -65.8606 -10 -39.9201
v -65.8606 0 -39.9201
v -67.113 -10 -36.744
v -67.113 0 -36.744
v -68.1459 -10 -33.4898
v -68.1459 0 -33.4898
v -68.9542 -10 -30.1728
v -68.9542 0 -30.1728
v -69.5343 -10 -26.8083
v -69.5343 0 -26.8083
v -69.8834 -10 -23.4121
v -69.8834 0 -23.4121
v -70 -10 -20
v -70 0 -20
v -100 -10 -20
v -100 0 -20
v -100 -10 20
v -100 0 20
v -70 -10 20
v -70 0 20
v -69.8834 -10 23.4121
v -69.8834 0 23.4121
v -69.5343 -10 26.8083
v -69.5343 0 26.8083
v -68.9542 -10 30.1728
v -68.9542 0 30.1728
v -68.1459 -10 33.4898
v -68.1459 0 33.4898
v -67.113 -10 36.744
v -67.113 0 36.744
v -65.8606 -10 39.9201
v -65.8606 0 39.9201
v -64.3943 -10 43.0033
v -64.3943 0 43.0033
v -62.721 -10 45.9792
v -62.721 0 45.9792
v -60.8485 -10 48.834
v -60.8485 0 48.834
v -58.7856 -10 51.5544
v -58.7856 0 51.5544
v -56.5418 -10 54.1277
v -56.5418 0 54.1277
v -54.1277 -10 56.5418
v -54.1277 0 56.5418
v -51.5544 -10 58.7856
v -51.5544 0 58.7856
v -48.834 -10 60.8485
v -48.834 0 60.8485
v -45.9792 -10 62.721
v -45.9792 0 62.721
v -43.0033 -10 64.3943
v -43.0033 0 64.3943
v -39.9201 -10 65.8606
v -39.9201 0 65.8606
v -36.744 -10 67.113
v -36.744 0 67.113
v -33.4898 -10 68.1459
v -33.4898 0 68.1459
v -30.1728 -10 68.9542
v -30.1728 0 68.9542
v -26.8083 -10 69.5343
v -26.8083 0 69.5343
v -23.4121 -10 69.8834
v -23.4121 0 69.8834
v -20 -10 70
v -20 0 70
v -20 -10 100
v -20 0 100
v 20 -10 100
v 20 0 100
v 20 -10 70
v 20 0 70
v 23.4121 -10 69.8834
v 23.4121 0 69.8834
v 26.8083 -10 69.5343
v 26.8083 0 69.5343
v 30.1728 -10 68.9542
v 30.1728 0 68.9542
v 33.4898 -10 68.1459
v 33.4898 0 68.1459
v 36.744 -10 67.113
v 36.744 0 67.113
v 39.9201 -10 65.8606
v 39.9201 0 65.8606
v 43.0033 -10 64.3943
v 43.0033 0 64.3943
v 45.9792 -10 62.721
v 45.9792 0 62.721
v 48.834 -10 60.8485
v 48.834 0 60.8485
v 51.5544 -10 58.7856
v 51.5544 0 58.7856
v 54.1277 -10 56.5418
v 54.1277 0 56.5418
v 56.5418 -10 54.1277
v 56.5418 0 54.1277
v 58.7856 -10 51.5544
v 58.7856 0 51.5544
v 60.8485 -10 48.834
v 60.8485 0 48.834
v 62.721 -10 45.9792
v 62.721 0 45.9792
v 64.3943 -10 43.0033
v 64.3943 0 43.0033
v 65.8606 -10 39.9201
v 65.8606 0 39.9201
v 67.113 -10 36.744
v 67.113 0 36.744
v 68.1459 -10 33.4898
v 68.1459 0 33.4898
v 68.9542 -10 30.1728
v 68.9542 0 30.1728
v 69.5343 -10 26.8083
v 69.5343 0 26.8083
v 69.8834 -10 23.4121
v 69.8834 0 23.4121
v 70 -10 20
v 70 0 20
v 100 0 20
v 100 0 -20
v 100 -10 -20
v 100 -10 20
vn 1 0 -1.04899e-15
vn 0.997669 0 -0.0682424
vn 0.990686 0 -0.136167
vn 0.979084 0 -0.203456
vn 0.962917 0 -0.269797
vn 0.942261 0 -0.33488
vn 0.917211 0 -0.398401
vn 0.887885 0 -0.460065
vn 0.854419 0 -0.519584
vn 0.81697 0 -0.57668
vn 0.775711 0 -0.631088
vn 0.730836 0 -0.682553
vn 0.682553 0 -0.730836
vn 0.631088 0 -0.775711
vn 0.57668 0 -0.81697
vn 0.519584 0 -0.854419
vn 0.460065 0 -0.887885
vn 0.398401 0 -0.917211
vn 0.33488 0 -0.942261
vn 0.269797 0 -0.962917
vn 0.203456 0 -0.979084
vn 0.136167 0 -0.990686
vn 0.0682424 0 -0.997669
vn 1.22465e-16 0 -1
vn 1 0 0
vn -1 -0 -0
vn -3.21625e-16 -0 -1
vn -0.0682424 -0 -0.997669
vn -0.136167 -0 -0.990686
vn -0.203456 -0 -0.979084
vn -0.269797 -0 -0.962917
vn -0.33488 -0 -0.942261
vn -0.398401 -0 -0.917211
vn -0.460065 -0 -0.887885
vn -0.519584 -0 -0.854419
vn -0.57668 -0 -0.81697
vn -0.631088 -0 -0.775711
vn -0.682553 -0 -0.730836
vn -0.730836 -0 -0.682553
vn -0.775711 -0 -0.631088
vn -0.81697 -0 -0.57668
vn -0.854419 -0 -0.519584
vn -0.887885 -0 -0.460065
vn -0.917211 -0 -0.398401
vn -0.942261 -0 -0.33488
vn -0.962917 -0 -0.269797
vn -0.979084 -0 -0.203456
vn -0.990686 -0 -0.136167
vn -0.997669 -0 -0.0682424
vn -1 -0 -1.83697e-16
vn 0 -0 -1
vn -0 0 1
vn -1 -0 -1.83697e-16
vn -0.997669 0 0.0682424
vn -0.990686 0 0.136167
vn -0.979084 0 0.203456
vn -0.962917 0 0.269797
vn -0.942261 0 0.33488
vn -0.917211 0 0.398401
vn -0.887885 0 0.460065
vn -0.854419 0 0.519584
vn -0.81697 0 0.57668
vn -0.775711 0 0.631088
vn -0.730836 0 0.682553
vn -0.682553 0 0.730836
vn -0.631088 0 0.775711
vn -0.57668 0 0.81697
vn -0.519584 0 0.854419
vn -0.460065 0 0.887885
vn -0.398401 0 0.917211
vn -0.33488 0 0.942261
vn -0.269797 0 0.962917
vn -0.203456 0 0.979084
vn -0.136167 0 0.990686
vn -0.0682424 0 0.997669
vn 6.43249e-16 0 1
vn -1 -0 -0
vn 1 0 0
vn 0 0 1
vn 0.0682424 0 0.997669
vn 0.136167 0 0.990686
vn 0.203456 0 0.979084
vn 0.269797 0 0.962917
vn 0.33488 0 0.942261
vn 0.398401 0 0.917211
vn 0.460065 0 0.887885
vn 0.519584 0 0.854419
vn 0.57668 0 0.81697
vn 0.631088 0 0.775711
vn 0.682553 0 0.730836
vn 0.730836 0 0.682553
vn 0.775711 0 0.631088
vn 0.81697 0 0.57668
vn 0.854419 0 0.519584
vn 0.887885 0 0.460065
vn 0.917211 0 0.398401
vn 0.942261 0 0.33488
vn 0.962917 0 0.269797
vn 0.979084 0 0.203456
vn 0.990686 0 0.136167
vn 0.997669 0 0.0682424
vn 1 0 5.05322e-16
vn -0 1 -0
vn 0 -1 0
vn -0 0 1
vn 1 -0 -0
vn 0 -0 -1
vt 1.5708 10
vt 1.5708 0
vt 1.63909 0
vt 1.63909 10
vt 1.70739 0
vt 1.70739 10
vt 1.77568 0
vt 1.77568 10
vt 1.84398 0
vt 1.84398 10
vt 1.91227 0
vt 1.91227 10
vt 1.98057 0
vt 1.98057 10
vt 2.04886 0
vt 2.04886 10
vt 2.11716 0
vt 2.11716 10
vt 2.18546 0
vt 2.18546 10
vt 2.25375 0
vt 2.25375 10
vt 2.32205 0
vt 2.32205 10
vt 2.39034 0
vt 2.39034 10
vt 2.45864 0
vt 2.45864 10
vt 2.52693 0
vt 2.52693 10
vt 2.59523 0
vt 2.59523 10
vt 2.66352 0
vt 2.66352 10
vt 2.73182 0
vt 2.73182 10
vt 2.80012 0
vt 2.80012 10
vt 2.86841 0
vt 2.86841 10
vt 2.93671 0
vt 2.93671 10
vt 3.005 0
vt 3.005 10
vt 3.0733 0
vt 3.0733 10
vt 3.14159 0
vt 3.14159 10
vt 15 0
vt 15 10
vt -15 10
vt -15 0
vt -20 0
vt -20 10
vt 20 10
vt 20 0
vt -15 0
vt -15 10
vt 15 10
vt 15 0
vt 3.14159 10
vt 3.14159 0
vt 3.20989 0
vt 3.20989 10
vt 3.27818 0
vt 3.27818 10
vt 3.34648 0
vt 3.34648 10
vt 3.41477 0
vt 3.41477 10
vt 3.48307 0
vt 3.48307 10
vt 3.55137 0
vt 3.55137 10
vt 3.61966 0
vt 3.61966 10
vt 3.68796 0
vt 3.68796 10
vt 3.75625 0
vt 3.75625 10
vt 3.82455 0
vt 3.82455 10
vt 3.89284 0
vt 3.89284 10
vt 3.96114 0
vt 3.96114 10
vt 4.02943 0
vt 4.02943 10
vt 4.09773 0
vt 4.09773 10
vt 4.16603 0
vt 4.16603 10
vt 4.23432 0
vt 4.23432 10
vt 4.30262 0
vt 4.30262 10
vt 4.37091 0
vt 4.37091 10
vt 4.43921 0
vt 4.43921 10
vt 4.5075 0
vt 4.5075 10
vt 4.5758 0
vt 4.5758 10
vt 4.64409 0
vt 4.64409 10
vt 4.71239 0
vt 4.71239 10
vt -15 0
vt -15 10
vt 15 10
vt 15 0
vt -20 0
vt -20 10
vt 20 10
vt 20 0
vt 15 0
vt 15 10
vt -15 10
vt -15 0
vt 4.71239 10
vt 4.71239 0
vt 4.78068 0
vt 4.78068 10
vt 4.84898 0
vt 4.84898 10
vt 4.91728 0
vt 4.91728 10
vt 4.98557 0
vt 4.98557 10
vt 5.05387 0
vt 5.05387 10
vt 5.12216 0
vt 5.12216 10
vt 5.19046 0
vt 5.19046 10
vt 5.25875 0
vt 5.25875 10
vt 5.32705 0
vt 5.32705 10
vt 5.39534 0
vt 5.39534 10
vt 5.46364 0
vt 5.46364 10
vt 5.53193 0
vt 5.53193 10
vt 5.60023 0
vt 5.60023 10
vt 5.66853 0
vt 5.66853 10
vt 5.73682 0
vt 5.73682 10
vt 5.80512 0
vt 5.80512 10
vt 5.87341 0
vt 5.87341 10
vt 5.94171 0
vt 5.94171 10
vt 6.01 0
vt 6.01 10
vt 6.0783 0
vt 6.0783 10
vt 6.14659 0
vt 6.14659 10
vt 6.21489 0
vt 6.21489 10
vt 6.28319 0
vt 6.28319 10
vt -15 0
vt -15 10
vt 15 10
vt 15 0
vt 20 0
vt 20 10
vt -20 10
vt -20 0
vt 15 0
vt 15 10
vt -15 10
vt -15 0
vt 0 10
vt 0 0
vt 0.0682955 0
vt 0.0682955 10
vt 0.136591 0
vt 0.136591 10
vt 0.204886 0
vt 0.204886 10
vt 0.273182 0
vt 0.273182 10
vt 0.341477 0
vt 0.341477 10
vt 0.409773 0
vt 0.409773 10
vt 0.478068 0
vt 0.478068 10
vt 0.546364 0
vt 0.546364 10
vt 0.614659 0
vt 0.614659 10
vt 0.682955 0
vt 0.682955 10
vt 0.75125 0
vt 0.75125 10
vt 0.819546 0
vt 0.819546 10
vt 0.887841 0
vt 0.887841 10
vt 0.956137 0
vt 0.956137 10
vt 1.02443 0
vt 1.02443 10
vt 1.09273 0
vt 1.09273 10
vt 1.16102 0
vt 1.16102 10
vt 1.22932 0
vt 1.22932 10
vt 1.29761 0
vt 1.29761 10
vt 1.36591 0
vt 1.36591 10
vt 1.43421 0
vt 1.43421 10
vt 1.5025 0
vt 1.5025 10
vt 1.5708 0
vt 1.5708 10
vt 36.744 67.113
vt 39.9201 65.8606
vt 43.0033 64.3943
vt -54.1277 -56.5418
vt -65.8606 -39.9201
vt -67.113 -36.744
vt 20 70
vt 62.721 45.9792
vt 64.3943 43.0033
vt 30.1728 68.9542
vt 51.5544 58.7856
vt 54.1277 56.5418
vt 45.9792 62.721
vt 48.834 60.8485
vt 33.4898 68.1459
vt -64.3943 -43.0033
vt -62.721 -45.9792
vt -56.5418 -54.1277
vt -58.7856 -51.5544
vt -69.5343 -26.8083
vt -26.8083 -69.5343
vt -30.1728 -68.9542
vt 60.8485 48.834
vt 56.5418 54.1277
vt 23.4121 69.8834
vt 26.8083 69.5343
vt -68.1459 -33.4898
vt -48.834 -60.8485
vt -51.5544 -58.7856
vt -43.0033 -64.3943
vt -45.9792 -62.721
vt -36.744 -67.113
vt -39.9201 -65.8606
vt -33.4898 -68.1459
vt 68.9542 30.1728
vt 69.5343 26.8083
vt 65.8606 39.9201
vt 58.7856 51.5544
vt 26.8083 -69.5343
vt -36.744 67.113
vt -33.4898 68.1459
vt -60.8485 -48.834
vt 69.8834 23.4121
vt 67.113 36.744
vt 68.1459 33.4898
vt -39.9201 65.8606
vt -62.721 45.9792
vt -60.8485 48.834
vt -69.8834 23.4121
vt 23.4121 -69.8834
vt 20 -70
vt -20 70
vt 58.7856 -51.5544
vt 56.5418 -54.1277
vt 67.113 -36.744
vt 65.8606 -39.9201
vt 68.9542 -30.1728
vt 68.1459 -33.4898
vt -68.9542 -30.1728
vt -23.4121 -69.8834
vt -30.1728 68.9542
vt -26.8083 69.5343
vt -43.0033 64.3943
vt -48.834 60.8485
vt -45.9792 62.721
vt -58.7856 51.5544
vt -56.5418 54.1277
vt -64.3943 43.0033
vt -68.1459 33.4898
vt -67.113 36.744
vt 48.834 -60.8485
vt 45.9792 -62.721
vt 54.1277 -56.5418
vt 51.5544 -58.7856
vt 60.8485 -48.834
vt 64.3943 -43.0033
vt 62.721 -45.9792
vt -20 -70
vt -23.4121 69.8834
vt -65.8606 39.9201
vt -69.5343 26.8083
vt -68.9542 30.1728
vt -70 20
vt 39.9201 -65.8606
vt 36.744 -67.113
vt 69.5343 -26.8083
vt 70 -20
vt 69.8834 -23.4121
vt -69.8834 -23.4121
vt 70 20
vt -54.1277 56.5418
vt -51.5544 58.7856
vt 33.4898 -68.1459
vt 30.1728 -68.9542
vt 43.0033 -64.3943
vt 100 20
vt 100 -20
vt -70 -20
vt -20 100
vt 20 -100
vt -20 -100
vt 20 100
vt -100 -20
vt -100 20
vt -68.1459 -33.4898
vt -33.4898 -68.1459
vt -30.1728 -68.9542
vt -62.721 -45.9792
vt -58.7856 -51.5544
vt -56.5418 -54.1277
vt -36.744 -67.113
vt -43.0033 -64.3943
vt -39.9201 -65.8606
vt -60.8485 -48.834
vt -54.1277 -56.5418
vt -67.113 -36.744
vt -70 20
vt 43.0033 64.3943
vt 39.9201 65.8606
vt 43.0033 -64.3943
vt 67.113 -36.744
vt 68.1459 -33.4898
vt 64.3943 -43.0033
vt 58.7856 -51.5544
vt 60.8485 -48.834
vt 54.1277 -56.5418
vt 56.5418 -54.1277
vt -48.834 -60.8485
vt -45.9792 -62.721
vt -51.5544 -58.7856
vt -64.3943 -43.0033
vt -65.8606 -39.9201
vt -33.4898 68.1459
vt -36.744 67.113
vt 45.9792 62.721
vt 68.9542 -30.1728
vt 65.8606 -39.9201
vt 48.834 -60.8485
vt 51.5544 -58.7856
vt -26.8083 -69.5343
vt -58.7856 51.5544
vt -65.8606 39.9201
vt -67.113 36.744
vt -30.1728 68.9542
vt 30.1728 68.9542
vt 26.8083 69.5343
vt 36.744 67.113
vt 33.4898 68.1459
vt 48.834 60.8485
vt 69.5343 -26.8083
vt 69.8834 -23.4121
vt 45.9792 -62.721
vt 70 -20
vt 33.4898 -68.1459
vt 36.744 -67.113
vt -23.4121 -69.8834
vt -54.1277 56.5418
vt -69.5343 26.8083
vt -69.8834 23.4121
vt -64.3943 43.0033
vt -60.8485 48.834
vt -43.0033 64.3943
vt -45.9792 62.721
vt -39.9201 65.8606
vt -23.4121 69.8834
vt -26.8083 69.5343
vt 23.4121 69.8834
vt 54.1277 56.5418
vt 51.5544 58.7856
vt 39.9201 -65.8606
vt 26.8083 -69.5343
vt 30.1728 -68.9542
vt -20 -70
vt -69.5343 -26.8083
vt -68.9542 -30.1728
vt -68.9542 30.1728
vt -62.721 45.9792
vt -68.1459 33.4898
vt -56.5418 54.1277
vt -20 70
vt 56.5418 54.1277
vt 65.8606 39.9201
vt 64.3943 43.0033
vt 62.721 -45.9792
vt -70 -20
vt -69.8834 -23.4121
vt -48.834 60.8485
vt -51.5544 58.7856
vt 60.8485 48.834
vt 58.7856 51.5544
vt 62.721 45.9792
vt 68.9542 30.1728
vt 68.1459 33.4898
vt 69.8834 23.4121
vt 69.5343 26.8083
vt 20 -70
vt 23.4121 -69.8834
vt 67.113 36.744
vt 70 20
vt 100 -20
vt -20 -100
vt 20 70
vt -20 100
vt -100 20
vt -100 -20
vt 20 100
vt 100 20
vt 20 -100
vt 15 0
vt 15 10
vt -15 10
vt -15 0
vt -20 0
vt -20 10
vt 20 10
vt 20 0
vt -15 0
vt -15 10
vt 15 10
vt 15 0
f 1/1/1 2/2/1 3/3/2
f 4/4/2 3/3/2 5/5/3
f 6/6/3 5/5/3 7/7/4
f 8/8/4 7/7/4 9/9/5
f 10/10/5 9/9/5 11/11/6
f 12/12/6 11/11/6 13/13/7
f 14/14/7 13/13/7 15/15/8
f 16/16/8 15/15/8 17/17/9
f 18/18/9 17/17/9 19/19/10
f 20/20/10 19/19/10 21/21/11
f 22/22/11 21/21/11 23/23/12
f 24/24/12 23/23/12 25/25/13
f 26/26/13 25/25/13 27/27/14
f 28/28/14 27/27/14 29/29/15
f 30/30/15 29/29/15 31/31/16
f 32/32/16 31/31/16 33/33/17
f 34/34/17 33/33/17 35/35/18
f 36/36/18 35/35/18 37/37/19
f 38/38/19 37/37/19 39/39/20
f 40/40/20 39/39/20 41/41/21
f 42/42/21 41/41/21 43/43/22
f 44/44/22 43/43/22 45/45/23
f 46/46/23 45/45/23 47/47/24
f 47/47/24 48/48/24 46/46/23
f 45/45/23 46/46/23 44/44/22
f 43/43/22 44/44/22 42/42/21
f 41/41/21 42/42/21 40/40/20
f 39/39/20 40/40/20 38/38/19
f 37/37/19 38/38/19 36/36/18
f 35/35/18 36/36/18 34/34/17
f 33/33/17 34/34/17 32/32/16
f 31/31/16 32/32/16 30/30/15
f 29/29/15 30/30/15 28/28/14
f 27/27/14 28/28/14 26/26/13
f 25/25/13 26/26/13 24/24/12
f 23/23/12 24/24/12 22/22/11
f 21/21/11 22/22/11 20/20/10
f 19/19/10 20/20/10 18/18/9
f 17/17/9 18/18/9 16/16/8
f 15/15/8 16/16/8 14/14/7
f 13/13/7 14/14/7 12/12/6
f 11/11/6 12/12/6 10/10/5
f 9/9/5 10/10/5 8/8/4
f 7/7/4 8/8/4 6/6/3
f 5/5/3 6/6/3 4/4/2
f 3/3/2 4/4/2 1/1/1
f 49/49/25 50/50/25 48/51/25
f 48/51/25 47/52/25 49/49/25
f 51/53/24 52/54/24 50/55/24
f 50/55/24 49/56/24 51/53/24
f 53/57/26 54/58/26 52/59/26
f 52/59/26 51/60/26 53/57/26
f 54/61/27 53/62/27 55/63/28
f 56/64/28 55/63/28 57/65/29
f 58/66/29 57/65/29 59/67/30
f 60/68/30 59/67/30 61/69/31
f 62/70/31 61/69/31 63/71/32
f 64/72/32 63/71/32 65/73/33
f 66/74/33 65/73/33 67/75/34
f 68/76/34 67/75/34 69/77/35
f 70/78/35 69/77/35 71/79/36
f 72/80/36 71/79/36 73/81/37
f 74/82/37 73/81/37 75/83/38
f 76/84/38 75/83/38 77/85/39
f 78/86/39 77/85/39 79/87/40
f 80/88/40 79/87/40 81/89/41
f 82/90/41 81/89/41 83/91/42
f 84/92/42 83/91/42 85/93/43
f 86/94/43 85/93/43 87/95/44
f 88/96/44 87/95/44 89/97/45
f 90/98/45 89/97/45 91/99/46
f 92/100/46 91/99/46 93/101/47
f 94/102/47 93/101/47 95/103/48
f 96/104/48 95/103/48 97/105/49
f 98/106/49 97/105/49 99/107/50
f 99/107/50 100/108/50 98/106/49
f 97/105/49 98/106/49 96/104/48
f 95/103/48 96/104/48 94/102/47
f 93/101/47 94/102/47 92/100/46
f 91/99/46 92/100/46 90/98/45
f 89/97/45 90/98/45 88/96/44
f 87/95/44 88/96/44 86/94/43
f 85/93/43 86/94/43 84/92/42
f 83/91/42 84/92/42 82/90/41
f 81/89/41 82/90/41 80/88/40
f 79/87/40 80/88/40 78/86/39
f 77/85/39 78/86/39 76/84/38
f 75/83/38 76/84/38 74/82/37
f 73/81/37 74/82/37 72/80/36
f 71/79/36 72/80/36 70/78/35
f 69/77/35 70/78/35 68/76/34
f 67/75/34 68/76/34 66/74/33
f 65/73/33 66/74/33 64/72/32
f 63/71/32 64/72/32 62/70/31
f 61/69/31 62/70/31 60/68/30
f 59/67/30 60/68/30 58/66/29
f 57/65/29 58/66/29 56/64/28
f 55/63/28 56/64/28 54/61/27
f 101/109/51 102/110/51 100/111/51
f 100/111/51 99/112/51 101/109/51
f 103/113/50 104/114/50 102/115/50
f 102/115/50 101/116/50 103/113/50
f 105/117/52 106/118/52 104/119/52
f 104/119/52 103/120/52 105/117/52
f 106/121/53 105/122/53 107/123/54
f 108/124/54 107/123/54 109/125/55
f 110/126/55 109/125/55 111/127/56
f 112/128/56 111/127/56 113/129/57
f 114/130/57 113/129/57 115/131/58
f 116/132/58 115/131/58 117/133/59
f 118/134/59 117/133/59 119/135/60
f 120/136/60 119/135/60 121/137/61
f 122/138/61 121/137/61 123/139/62
f 124/140/62 123/139/62 125/141/63
f 126/142/63 125/141/63 127/143/64
f 128/144/64 127/143/64 129/145/65
f 130/146/65 129/145/65 131/147/66
f 132/148/66 131/147/66 133/149/67
f 134/150/67 133/149/67 135/151/68
f 136/152/68 135/151/68 137/153/69
f 138/154/69 137/153/69 139/155/70
f 140/156/70 139/155/70 141/157/71
f 142/158/71 141/157/71 143/159/72
f 144/160/72 143/159/72 145/161/73
f 146/162/73 145/161/73 147/163/74
f 148/164/74 147/163/74 149/165/75
f 150/166/75 149/165/75 151/167/76
f 151/167/76 152/168/76 150/166/75
f 149/165/75 150/166/75 148/164/74
f 147/163/74 148/164/74 146/162/73
f 145/161/73 146/162/73 144/160/72
f 143/159/72 144/160/72 142/158/71
f 141/157/71 142/158/71 140/156/70
f 139/155/70 140/156/70 138/154/69
f 137/153/69 138/154/69 136/152/68
f 135/151/68 136/152/68 134/150/67
f 133/149/67 134/150/67 132/148/66
f 131/147/66 132/148/66 130/146/65
f 129/145/65 130/146/65 128/144/64
f 127/143/64 128/144/64 126/142/63
f 125/141/63 126/142/63 124/140/62
f 123/139/62 124/140/62 122/138/61
f 121/137/61 122/138/61 120/136/60
f 119/135/60 120/136/60 118/134/59
f 117/133/59 118/134/59 116/132/58
f 115/131/58 116/132/58 114/130/57
f 113/129/57 114/130/57 112/128/56
f 111/127/56 112/128/56 110/126/55
f 109/125/55 110/126/55 108/124/54
f 107/123/54 108/124/54 106/121/53
f 153/169/77 154/170/77 152/171/77
f 152/171/77 151/172/77 153/169/77
f 155/173/76 156/174/76 154/175/76
f 154/175/76 153/176/76 155/173/76
f 157/177/78 158/178/78 156/179/78
f 156/179/78 155/180/78 157/177/78
f 158/181/79 157/182/79 159/183/80
f 160/184/80 159/183/80 161/185/81
f 162/186/81 161/185/81 163/187/82
f 164/188/82 163/187/82 165/189/83
f 166/190/83 165/189/83 167/191/84
f 168/192/84 167/191/84 169/193/85
f 170/194/85 169/193/85 171/195/86
f 172/196/86 171/195/86 173/197/87
f 174/198/87 173/197/87 175/199/88
f 176/200/88 175/199/88 177/201/89
f 178/202/89 177/201/89 179/203/90
f 180/204/90 179/203/90 181/205/91
f 182/206/91 181/205/91 183/207/92
f 184/208/92 183/207/92 185/209/93
f 186/210/93 185/209/93 187/211/94
f 188/212/94 187/211/94 189/213/95
f 190/214/95 189/213/95 191/215/96
f 192/216/96 191/215/96 193/217/97
f 194/218/97 193/217/97 195/219/98
f 196/220/98 195/219/98 197/221/99
f 198/222/99 197/221/99 199/223/100
f 200/224/100 199/223/100 201/225/101
f 202/226/101 201/225/101 203/227/102
f 203/227/102 204/228/102 202/226/101
f 201/225/101 202/226/101 200/224/100
f 199/223/100 200/224/100 198/222/99
f 197/221/99 198/222/99 196/220/98
f 195/219/98 196/220/98 194/218/97
f 193/217/97 194/218/97 192/216/96
f 191/215/96 192/216/96 190/214/95
f 189/213/95 190/214/95 188/212/94
f 187/211/94 188/212/94 186/210/93
f 185/209/93 186/210/93 184/208/92
f 183/207/92 184/208/92 182/206/91
f 181/205/91 182/206/91 180/204/90
f 179/203/90 180/204/90 178/202/89
f 177/201/89 178/202/89 176/200/88
f 175/199/88 176/200/88 174/198/87
f 173/197/87 174/198/87 172/196/86
f 171/195/86 172/196/86 170/194/85
f 169/193/85 170/194/85 168/192/84
f 167/191/84 168/192/84 166/190/83
f 165/189/83 166/190/83 164/188/82
f 163/187/82 164/188/82 162/186/81
f 161/185/81 162/186/81 160/184/80
f 159/183/80 160/184/80 158/181/79
f 168/229/103 170/230/103 172/231/103
f 76/232/103 88/233/103 90/234/103
f 158/235/103 188/236/103 190/237/103
f 164/238/103 178/239/103 180/240/103
f 172/231/103 174/241/103 168/229/103
f 176/242/103 164/238/103 166/243/103
f 76/232/103 86/244/103 88/233/103
f 84/245/103 78/246/103 80/247/103
f 96/248/103 58/249/103 60/250/103
f 158/235/103 186/251/103 188/236/103
f 164/238/103 176/242/103 178/239/103
f 166/243/103 168/229/103 176/242/103
f 182/252/103 160/253/103 162/254/103
f 76/232/103 84/245/103 86/244/103
f 84/245/103 76/232/103 78/246/103
f 92/255/103 72/256/103 74/257/103
f 92/255/103 68/258/103 70/259/103
f 96/248/103 64/260/103 66/261/103
f 60/250/103 62/262/103 96/248/103
f 158/235/103 198/263/103 200/264/103
f 190/237/103 192/265/103 158/235/103
f 158/235/103 182/252/103 184/266/103
f 174/241/103 176/242/103 168/229/103
f 182/252/103 158/235/103 160/253/103
f 44/267/103 142/268/103 144/269/103
f 80/247/103 82/270/103 84/245/103
f 70/259/103 72/256/103 92/255/103
f 62/262/103 64/260/103 96/248/103
f 200/264/103 202/271/103 158/235/103
f 158/235/103 194/272/103 196/273/103
f 184/266/103 186/251/103 158/235/103
f 162/254/103 164/238/103 182/252/103
f 44/267/103 140/274/103 142/268/103
f 44/267/103 122/275/103 124/276/103
f 108/277/103 46/278/103 48/279/103
f 152/280/103 22/281/103 24/282/103
f 152/280/103 12/283/103 14/284/103
f 152/280/103 8/285/103 10/286/103
f 68/258/103 92/255/103 94/287/103
f 74/257/103 76/232/103 92/255/103
f 96/248/103 56/288/103 58/249/103
f 196/273/103 198/263/103 158/235/103
f 180/240/103 182/252/103 164/238/103
f 44/267/103 146/289/103 148/290/103
f 44/267/103 138/291/103 140/274/103
f 44/267/103 134/292/103 136/293/103
f 44/267/103 126/294/103 128/295/103
f 44/267/103 120/296/103 122/275/103
f 44/267/103 114/297/103 116/298/103
f 108/277/103 44/267/103 46/278/103
f 152/280/103 30/299/103 32/300/103
f 152/280/103 26/301/103 28/302/103
f 152/280/103 20/303/103 22/281/103
f 152/280/103 16/304/103 18/305/103
f 10/286/103 12/283/103 152/280/103
f 90/234/103 92/255/103 76/232/103
f 96/248/103 54/306/103 56/288/103
f 192/265/103 194/272/103 158/235/103
f 148/290/103 150/307/103 44/267/103
f 136/293/103 138/291/103 44/267/103
f 124/276/103 126/294/103 44/267/103
f 116/298/103 118/308/103 44/267/103
f 44/267/103 110/309/103 112/310/103
f 48/279/103 106/311/103 108/277/103
f 152/280/103 36/312/103 38/313/103
f 28/302/103 30/299/103 152/280/103
f 18/305/103 20/303/103 152/280/103
f 152/280/103 6/314/103 8/285/103
f 152/280/103 1/315/103 4/316/103
f 54/306/103 96/248/103 98/317/103
f 66/261/103 68/258/103 96/248/103
f 202/271/103 204/318/103 158/235/103
f 144/269/103 146/289/103 44/267/103
f 44/267/103 130/319/103 132/320/103
f 118/308/103 120/296/103 44/267/103
f 108/277/103 110/309/103 44/267/103
f 152/280/103 40/321/103 42/322/103
f 152/280/103 34/323/103 36/312/103
f 24/282/103 26/301/103 152/280/103
f 4/316/103 6/314/103 152/280/103
f 94/287/103 96/248/103 68/258/103
f 204/318/103 205/324/103 206/325/103
f 1/315/103 152/280/103 158/235/103
f 132/320/103 134/292/103 44/267/103
f 112/310/103 114/297/103 44/267/103
f 38/313/103 40/321/103 152/280/103
f 14/284/103 16/304/103 152/280/103
f 100/326/103 48/279/103 54/306/103
f 204/318/103 1/315/103 158/235/103
f 158/235/103 152/280/103 154/327/103
f 128/295/103 130/319/103 44/267/103
f 32/300/103 34/323/103 152/280/103
f 98/317/103 100/326/103 54/306/103
f 48/279/103 50/328/103 52/329/103
f 154/327/103 156/330/103 158/235/103
f 42/322/103 44/267/103 152/280/103
f 102/331/103 104/332/103 106/311/103
f 52/329/103 54/306/103 48/279/103
f 150/307/103 152/280/103 44/267/103
f 100/326/103 106/311/103 48/279/103
f 106/311/103 100/326/103 102/331/103
f 206/325/103 1/315/103 204/318/103
f 91/333/104 61/334/104 59/335/104
f 83/336/104 79/337/104 77/338/104
f 91/333/104 63/339/104 61/334/104
f 91/333/104 67/340/104 65/341/104
f 83/336/104 81/342/104 79/337/104
f 75/343/104 91/333/104 89/344/104
f 105/345/104 171/346/104 169/347/104
f 33/348/104 11/349/104 9/350/104
f 15/351/104 21/352/104 19/353/104
f 15/351/104 25/354/104 23/355/104
f 65/341/104 63/339/104 91/333/104
f 91/333/104 71/356/104 69/357/104
f 91/333/104 75/343/104 73/358/104
f 75/343/104 85/359/104 83/336/104
f 89/344/104 87/360/104 75/343/104
f 105/345/104 143/361/104 141/362/104
f 105/345/104 173/363/104 171/346/104
f 9/350/104 7/364/104 33/348/104
f 33/348/104 15/351/104 13/365/104
f 23/355/104 21/352/104 15/351/104
f 15/351/104 29/366/104 27/367/104
f 59/335/104 57/368/104 91/333/104
f 73/358/104 71/356/104 91/333/104
f 87/360/104 85/359/104 75/343/104
f 125/369/104 117/370/104 115/371/104
f 105/345/104 145/372/104 143/361/104
f 105/345/104 163/373/104 161/374/104
f 105/345/104 167/375/104 165/376/104
f 105/345/104 175/377/104 173/363/104
f 33/348/104 5/378/104 3/379/104
f 13/365/104 11/349/104 33/348/104
f 27/367/104 25/354/104 15/351/104
f 15/351/104 33/348/104 31/380/104
f 2/381/104 39/382/104 37/383/104
f 57/368/104 55/384/104 91/333/104
f 77/338/104 75/343/104 83/336/104
f 129/385/104 109/386/104 107/387/104
f 125/369/104 119/388/104 117/370/104
f 119/388/104 125/369/104 123/389/104
f 105/345/104 137/390/104 135/391/104
f 141/362/104 139/392/104 105/345/104
f 105/345/104 149/393/104 147/394/104
f 161/374/104 159/395/104 105/345/104
f 169/347/104 167/375/104 105/345/104
f 105/345/104 179/396/104 177/397/104
f 7/364/104 5/378/104 33/348/104
f 31/380/104 29/366/104 15/351/104
f 37/383/104 35/398/104 2/381/104
f 2/381/104 43/399/104 41/400/104
f 69/357/104 67/340/104 91/333/104
f 53/401/104 95/402/104 93/403/104
f 129/385/104 111/404/104 109/386/104
f 123/389/104 121/405/104 119/388/104
f 113/406/104 129/385/104 127/407/104
f 139/392/104 137/390/104 105/345/104
f 105/345/104 151/408/104 149/393/104
f 165/376/104 163/373/104 105/345/104
f 105/345/104 181/409/104 179/396/104
f 105/345/104 191/410/104 189/411/104
f 19/353/104 17/412/104 15/351/104
f 41/400/104 39/382/104 2/381/104
f 93/403/104 91/333/104 53/401/104
f 53/401/104 99/413/104 97/414/104
f 129/385/104 113/406/104 111/404/104
f 127/407/104 125/369/104 113/406/104
f 105/345/104 133/415/104 131/416/104
f 147/394/104 145/372/104 105/345/104
f 177/397/104 175/377/104 105/345/104
f 105/345/104 185/417/104 183/418/104
f 189/411/104 187/419/104 105/345/104
f 105/345/104 197/420/104 195/421/104
f 105/345/104 201/422/104 199/423/104
f 35/398/104 33/348/104 2/381/104
f 2/381/104 47/424/104 45/425/104
f 97/414/104 95/402/104 53/401/104
f 115/371/104 113/406/104 125/369/104
f 135/391/104 133/415/104 105/345/104
f 183/418/104 181/409/104 105/345/104
f 105/345/104 193/426/104 191/410/104
f 199/423/104 197/420/104 105/345/104
f 105/345/104 47/424/104 203/427/104
f 45/425/104 43/399/104 2/381/104
f 55/384/104 53/401/104 91/333/104
f 131/416/104 129/385/104 105/345/104
f 187/419/104 185/417/104 105/345/104
f 203/427/104 201/422/104 105/345/104
f 203/427/104 2/381/104 207/428/104
f 3/379/104 2/381/104 33/348/104
f 47/424/104 53/401/104 51/429/104
f 47/424/104 105/345/104 99/413/104
f 105/345/104 157/430/104 151/408/104
f 153/431/104 151/408/104 157/430/104
f 195/421/104 193/426/104 105/345/104
f 2/381/104 203/427/104 47/424/104
f 53/401/104 47/424/104 99/413/104
f 105/345/104 103/432/104 101/433/104
f 157/430/104 155/434/104 153/431/104
f 207/428/104 208/435/104 203/427/104
f 101/433/104 99/413/104 105/345/104
f 159/395/104 157/430/104 105/345/104
f 107/387/104 105/345/104 129/385/104
f 51/429/104 49/436/104 47/424/104
f 208/437/105 205/438/105 204/439/105
f 204/439/105 203/440/105 208/437/105
f 207/441/106 206/442/106 205/443/106
f 205/443/106 208/444/106 207/441/106
f 2/445/107 1/446/107 206/447/107
f 206/447/107 207/448/107 2/445/107
